<?xml version="1.0" standalone="no"?>
<!DOCTYPE svg PUBLIC "-//W3C//DTD SVG 20010904//EN"
 "http://www.w3.org/TR/2001/REC-SVG-20010904/DTD/svg10.dtd">
<svg version="1.0" xmlns="http://www.w3.org/2000/svg"
 width="512.000000pt" height="512.000000pt" viewBox="0 0 512.000000 512.000000"
 preserveAspectRatio="xMidYMid meet">
<metadata>
Created by potrace 1.14, written by Peter Selinger 2001-2017
</metadata>
<g transform="translate(0.000000,512.000000) scale(0.100000,-0.100000)"
fill="#000000" stroke="none">
<path d="M1600 3860 c0 -17 -7 -20 -40 -20 -33 0 -40 -3 -40 -20 0 -13 -7 -20
-20 -20 -19 0 -20 -7 -20 -160 0 -153 -1 -160 -20 -160 -19 0 -20 -7 -20 -160
0 -153 -1 -160 -20 -160 -18 0 -20 -7 -20 -80 0 -73 -2 -80 -20 -80 -19 0 -20
-7 -20 -160 0 -153 -1 -160 -20 -160 -18 0 -20 -7 -20 -80 0 -73 -2 -80 -20
-80 -19 0 -20 -7 -20 -140 0 -133 -1 -140 -20 -140 -19 0 -20 -7 -20 -160 l0
-160 -40 0 c-33 0 -40 -3 -40 -20 0 -13 7 -20 20 -20 18 0 20 -7 20 -60 0 -53
2 -60 20 -60 13 0 20 -7 20 -20 0 -13 7 -20 20 -20 13 0 20 -7 20 -20 0 -13 7
-20 20 -20 13 0 20 -7 20 -20 0 -13 7 -20 20 -20 13 0 20 -7 20 -20 0 -17 7
-20 40 -20 l40 0 0 40 0 40 260 0 c253 0 260 1 260 20 0 13 7 20 20 20 13 0
20 7 20 20 0 13 7 20 20 20 17 0 20 7 20 40 0 33 3 40 20 40 18 0 20 -7 20
-60 0 -53 2 -60 20 -60 13 0 20 -7 20 -20 0 -18 7 -20 80 -20 l80 0 0 -100 c0
-93 1 -100 20 -100 18 0 20 -7 20 -60 0 -53 2 -60 20 -60 13 0 20 -7 20 -20 0
-13 7 -20 20 -20 17 0 20 -7 20 -40 l0 -40 160 0 160 0 0 -40 0 -40 240 0 240
0 0 40 0 40 260 0 c253 0 260 1 260 20 0 17 7 20 40 20 l40 0 0 40 c0 33 3 40
20 40 17 0 20 7 20 40 0 33 3 40 20 40 17 0 20 7 20 40 0 33 3 40 20 40 19 0
20 7 20 120 0 113 -1 120 -20 120 -19 0 -20 7 -20 180 0 173 -1 180 -20 180
-17 0 -20 7 -20 40 0 33 -3 40 -20 40 -13 0 -20 7 -20 20 0 13 -7 20 -20 20
-13 0 -20 7 -20 20 0 20 -7 20 -340 20 -333 0 -340 0 -340 -20 0 -13 -7 -20
-20 -20 -19 0 -20 7 -20 140 l0 140 360 0 360 0 0 40 c0 33 3 40 20 40 17 0
20 7 20 40 0 33 -3 40 -20 40 -18 0 -20 7 -20 80 0 73 -2 80 -20 80 -19 0 -20
7 -20 180 0 173 -1 180 -20 180 -18 0 -20 7 -20 60 0 53 -2 60 -20 60 -13 0
-20 7 -20 20 0 13 -7 20 -20 20 -13 0 -20 7 -20 20 0 20 -7 20 -300 20 -293 0
-300 0 -300 20 0 13 -7 20 -20 20 -13 0 -20 7 -20 20 0 13 -7 20 -20 20 -19 0
-20 7 -20 180 l0 180 -340 0 -340 0 0 -120 c0 -113 -1 -120 -20 -120 -19 0
-20 7 -20 120 l0 120 -60 0 c-53 0 -60 2 -60 20 0 19 -7 20 -240 20 -233 0
-240 -1 -240 -20z m520 -140 c0 -33 -3 -40 -20 -40 -19 0 -20 -7 -20 -160 0
-153 -1 -160 -20 -160 -18 0 -20 -7 -20 -60 l0 -60 120 0 c113 0 120 1 120 20
0 13 7 20 20 20 19 0 20 7 20 240 l0 240 260 0 260 0 0 -80 c0 -73 -2 -80 -20
-80 -18 0 -20 -7 -20 -60 0 -53 2 -60 20 -60 18 0 20 -7 20 -60 0 -53 -2 -60
-20 -60 -13 0 -20 -7 -20 -20 0 -13 7 -20 20 -20 13 0 20 -7 20 -20 0 -20 7
-20 360 -20 l360 0 0 -40 c0 -33 3 -40 20 -40 18 0 20 -7 20 -80 0 -73 2 -80
20 -80 19 0 20 -7 20 -220 l0 -220 -360 0 -360 0 0 -220 0 -220 420 0 420 0 0
-100 c0 -93 1 -100 20 -100 19 0 20 -7 20 -180 l0 -180 -720 0 -720 0 0 240 0
240 -80 0 -80 0 0 40 c0 33 3 40 20 40 19 0 20 7 20 160 l0 160 -140 0 -140 0
0 -200 0 -200 -300 0 -300 0 0 140 c0 133 1 140 20 140 18 0 20 7 20 80 0 73
2 80 20 80 19 0 20 7 20 160 0 153 1 160 20 160 19 0 20 7 20 160 0 153 1 160
20 160 19 0 20 7 20 100 0 93 1 100 20 100 19 0 20 7 20 140 0 133 1 140 20
140 18 0 20 7 20 60 l0 60 260 0 260 0 0 -40z m0 -1500 c0 -133 -1 -140 -20
-140 -13 0 -20 -7 -20 -20 0 -13 -7 -20 -20 -20 -19 0 -20 7 -20 100 0 93 1
100 20 100 18 0 20 7 20 60 0 53 2 60 20 60 19 0 20 -7 20 -140z"/>
</g>
</svg>
